<svg version="1.1" id="Calque_1" xmlns="http://www.w3.org/2000/svg" xmlns:xlink="http://www.w3.org/1999/xlink" x="0px" y="0px" viewBox="0 0 96.5 96.5" enable-background="new 0 0 96.5 96.5" xml:space="preserve">
							 <path fill="#010202" d="M95.6,39.4L57.1,0.9C56.5,0.3,55.7,0,54.8,0c-0.9,0-1.7,0.3-2.3,0.9L0.9,52.5c-1.3,1.3-1.3,3.3,0,4.6l38.5,38.5c0.6,0.6,1.4,0.9,2.3,0.9c0.9,0,1.7-0.3,2.3-0.9L95.6,44c0.6-0.6,0.9-1.4,0.9-2.3C96.5,40.8,96.2,40,95.6,39.4zM94.9,43.3L43.3,94.9c-0.4,0.4-1,0.7-1.6,0.7c-0.6,0-1.2-0.2-1.6-0.7L1.6,56.4c-0.9-0.9-0.9-2.3,0-3.2L53.2,1.6c0.4-0.4,1-0.7,1.6-0.7c0.6,0,1.2,0.2,1.6,0.7l38.5,38.5c0.4,0.4,0.7,1,0.7,1.6C95.5,42.3,95.3,42.9,94.9,43.3z M5.1,51.4l39.9,39.9l46.3-46.3L51.4,5.1L5.1,51.4z M45.1,90L6.5,51.4L51.4,6.5L90,45.1L45.1,90z M22.9,71.5c-0.5,0-1.1,0.2-1.4,0.6c-0.8,0.8-0.8,2.1,0,2.9c0.4,0.4,0.9,0.6,1.4,0.6c0.5,0,1.1-0.2,1.4-0.6c0.8-0.8,0.8-2.1,0-2.9C24,71.8,23.5,71.5,22.9,71.5zM23.7,74.3c-0.4,0.4-1.1,0.4-1.5,0c-0.4-0.4-0.4-1.1,0-1.5c0.2-0.2,0.5-0.3,0.8-0.3c0.3,0,0.6,0.1,0.8,0.3C24.1,73.2,24.1,73.9,23.7,74.3z M41.9,46.5c0,3.3,2.7,6.1,6.1,6.1c0.4,0,0.7-0.3,0.7-0.7c0-0.4-0.3-0.7-0.7-0.7c-2.5,0-4.6-2-4.6-4.6c0-2.5,2-4.6,4.6-4.6c2,0,3.7,1.3,4.3,3.1l-0.7-0.4c-0.4-0.2-0.8-0.1-1,0.3c-0.1,0.1-0.1,0.2-0.1,0.4c0,0.3,0.1,0.5,0.4,0.6l2,1.2c0,0,0,0,0,0c0,0,0,0,0,0c0,0,0,0,0,0c0,0,0,0,0,0c0,0,0,0,0,0c0,0,0,0,0,0c0,0,0,0,0,0c0,0,0,0,0,0c0,0,0,0,0,0c0,0,0,0,0,0c0,0,0,0,0,0c0,0,0,0,0,0c0,0,0,0,0,0c0,0,0,0,0,0c0,0,0,0,0,0c0,0,0,0,0,0c0,0,0,0,0,0c0,0,0,0,0,0h0c0,0,0,0,0,0c0,0,0,0,0,0c0,0,0,0,0,0c0,0,0,0,0,0c0,0,0,0,0,0c0,0,0,0,0,0c0,0,0,0,0,0c0,0,0,0,0,0c0,0,0,0,0,0c0,0,0,0,0,0c0,0,0,0,0,0c0,0,0,0,0,0c0,0,0,0,0,0c0,0,0,0,0,0c0,0,0,0,0,0c0,0,0,0,0,0c0,0,0,0,0,0c0,0,0,0,0,0c0,0,0,0,0,0c0,0,0,0,0,0c0,0,0,0,0,0c0,0,0,0,0,0c0,0,0,0,0,0c0,0,0,0,0,0c0,0,0,0,0,0c0,0,0,0,0,0c0,0,0,0,0,0h0l1.5-1.9c0.3-0.3,0.2-0.8-0.1-1.1c-0.3-0.3-0.8-0.2-1.1,0.1l-0.5,0.6c-0.8-2.5-3.1-4.3-5.8-4.3C44.6,40.4,41.9,43.2,41.9,46.5z"></path>
						</svg>